<svg width="789" height="280" viewBox="0 0 789 280" xmlns="http://www.w3.org/2000/svg">
  <defs>
    <linearGradient id="ai" x1="0" x2="1">
      <stop offset="0" stop-color="#16C54B"/>
      <stop offset="1" stop-color="#00C2FF"/>
    </linearGradient>
  </defs>
  <rect width="789" height="280" rx="24" fill="white"/>
  <!-- Icon at left -->
  <g transform="translate(40,40)">
    <rect x="0" y="0" width="200" height="200" rx="42" fill="url(#ai)"/>
    <rect x="20" y="36" width="160" height="28" rx="10" fill="rgba(255,255,255,0.9)"/>
    <rect x="20" y="72" width="160" height="120" rx="14" fill="#fff" opacity="0.98"/>
    <rect x="130" y="96" width="24" height="64" rx="6" fill="#FF3B57"/>
    <rect x="112" y="114" width="64" height="24" rx="6" fill="#FF3B57"/>
  </g>
  <g transform="translate(0,34)">
  <rect x="88" y="90" width="24" height="56" rx="12" fill="#0F172A"/>
  <rect x="86" y="144" width="28" height="10" rx="5" fill="#0F172A" opacity="0.95"/>
  <rect x="95" y="154" width="10" height="20" rx="5" fill="#0F172A"/>
  <rect x="92" y="98" width="16" height="5" rx="2.5" fill="#FFFFFF" opacity="0.3"/>
  <rect x="92" y="108" width="16" height="5" rx="2.5" fill="#FFFFFF" opacity="0.3"/>
  <rect x="92" y="118" width="16" height="5" rx="2.5" fill="#FFFFFF" opacity="0.3"/>
  <path d="M70 132c0 18 14 32 32 32s32-14 32-32" fill="none" stroke="#0F172A" stroke-width="7" stroke-linecap="round"/>
  </g>
  <!-- Wordmark -->
  <g font-family="Inter, Segoe UI, Arial, sans-serif" font-size="84" font-weight="700">
    <text x="270" y="120" fill="#0F172A">med</text>
    <text x="448" y="120" fill="url(#ai)">AI</text>
    <text x="535" y="120" fill="#0F172A">cal</text>
    <text x="270" y="210" fill="#0F172A">schedul</text>
    <text x="575" y="210" fill="url(#ai)">AI</text>
    <text x="662" y="210" fill="#0F172A">r</text>
  </g>
</svg>